<svg xmlns="http://www.w3.org/2000/svg" viewBox="0 0 512 512">
  <defs>
    <linearGradient id="bg" x1="0" y1="0" x2="1" y2="1">
      <stop offset="0" stop-color="#8f7bff"/>
      <stop offset="1" stop-color="#ff5fa2"/>
    </linearGradient>
    <linearGradient id="star" x1="0" y1="0" x2="0" y2="1">
      <stop offset="0" stop-color="#ffe9a3"/>
      <stop offset="1" stop-color="#ffc24b"/>
    </linearGradient>
  </defs>
  <rect width="512" height="512" rx="115" fill="url(#bg)"/>
  <!-- target outline: the star you are trying to fit -->
  <path d="M 256 75 L 310.9 194.2 L 441.4 209.7 L 345 298.9 L 370.7 427.8 L 256 363.6 L 141.3 427.8 L 167 298.9 L 70.6 209.7 L 201.1 194.2 Z"
        fill="none" stroke="rgba(255,255,255,0.55)" stroke-width="11"
        stroke-dasharray="20 16" stroke-linecap="round" stroke-linejoin="round"/>
  <!-- player star, almost fitting -->
  <g>
    <path d="M 256 134 L 298.3 225.7 L 398.7 237.6 L 324.5 306.2 L 344.2 405.4 L 256 356 L 167.8 405.4 L 187.5 306.2 L 113.3 237.6 L 213.7 225.7 Z"
          fill="url(#star)" stroke="url(#star)" stroke-width="26" stroke-linejoin="round"/>
    <!-- kawaii face -->
    <circle cx="218" cy="282" r="14" fill="#3a2549"/>
    <circle cx="223" cy="277" r="5" fill="#ffffff"/>
    <circle cx="294" cy="282" r="14" fill="#3a2549"/>
    <circle cx="299" cy="277" r="5" fill="#ffffff"/>
    <path d="M 233 312 Q 256 330 279 312" fill="none" stroke="#3a2549" stroke-width="10" stroke-linecap="round"/>
    <circle cx="185" cy="306" r="11" fill="rgba(255,95,140,0.45)"/>
    <circle cx="327" cy="306" r="11" fill="rgba(255,95,140,0.45)"/>
  </g>
</svg>
